<mxfile host="app.diagrams.net" modified="2023-04-07T06:08:55.635Z" agent="Mozilla/5.0 (Windows NT 10.0; Win64; x64) AppleWebKit/537.36 (KHTML, like Gecko) Chrome/111.0.0.0 Safari/537.36" etag="zHcYreCSmjVr1ia0sGNk" version="21.1.4" type="device">
  <diagram name="Page-1" id="fPUhjjU6G7QoVK-W26sr">
    <mxGraphModel dx="1434" dy="739" grid="1" gridSize="10" guides="1" tooltips="1" connect="1" arrows="1" fold="1" page="1" pageScale="1" pageWidth="2339" pageHeight="3300" math="0" shadow="0">
      <root>
        <mxCell id="0" />
        <mxCell id="1" parent="0" />
        <mxCell id="TVzXZp35jAcB1p5jSO6k-2" style="edgeStyle=orthogonalEdgeStyle;rounded=0;orthogonalLoop=1;jettySize=auto;html=1;exitX=0.5;exitY=1;exitDx=0;exitDy=0;exitPerimeter=0;" parent="1" source="TVzXZp35jAcB1p5jSO6k-3" target="TVzXZp35jAcB1p5jSO6k-5" edge="1">
          <mxGeometry relative="1" as="geometry" />
        </mxCell>
        <mxCell id="TVzXZp35jAcB1p5jSO6k-3" value="&lt;font style=&quot;font-size: 20px;&quot;&gt;Start&lt;/font&gt;" style="strokeWidth=2;html=1;shape=mxgraph.flowchart.start_1;whiteSpace=wrap;" parent="1" vertex="1">
          <mxGeometry x="670" y="50" width="100" height="60" as="geometry" />
        </mxCell>
        <mxCell id="koFfnHoUcW7MzLcUIsGN-5" value="" style="edgeStyle=orthogonalEdgeStyle;rounded=0;orthogonalLoop=1;jettySize=auto;html=1;" edge="1" parent="1" source="TVzXZp35jAcB1p5jSO6k-5" target="TVzXZp35jAcB1p5jSO6k-8">
          <mxGeometry relative="1" as="geometry" />
        </mxCell>
        <mxCell id="TVzXZp35jAcB1p5jSO6k-5" value="&lt;font style=&quot;font-size: 14px;&quot;&gt;Download Excel Data&lt;/font&gt;" style="rounded=1;whiteSpace=wrap;html=1;" parent="1" vertex="1">
          <mxGeometry x="660" y="140" width="120" height="60" as="geometry" />
        </mxCell>
        <mxCell id="koFfnHoUcW7MzLcUIsGN-3" value="" style="edgeStyle=orthogonalEdgeStyle;rounded=0;orthogonalLoop=1;jettySize=auto;html=1;" edge="1" parent="1" source="TVzXZp35jAcB1p5jSO6k-8" target="koFfnHoUcW7MzLcUIsGN-2">
          <mxGeometry relative="1" as="geometry" />
        </mxCell>
        <mxCell id="TVzXZp35jAcB1p5jSO6k-8" value="&lt;span style=&quot;font-size: 14px;&quot;&gt;Generate Analytical Report&lt;/span&gt;" style="rounded=1;whiteSpace=wrap;html=1;" parent="1" vertex="1">
          <mxGeometry x="660" y="230" width="120" height="60" as="geometry" />
        </mxCell>
        <mxCell id="TVzXZp35jAcB1p5jSO6k-9" value="" style="edgeStyle=orthogonalEdgeStyle;rounded=0;orthogonalLoop=1;jettySize=auto;html=1;" parent="1" source="TVzXZp35jAcB1p5jSO6k-10" target="TVzXZp35jAcB1p5jSO6k-11" edge="1">
          <mxGeometry relative="1" as="geometry" />
        </mxCell>
        <mxCell id="TVzXZp35jAcB1p5jSO6k-10" value="&lt;font style=&quot;font-size: 14px;&quot;&gt;Send Mail To manager&lt;/font&gt;" style="rounded=1;whiteSpace=wrap;html=1;" parent="1" vertex="1">
          <mxGeometry x="660" y="430" width="120" height="60" as="geometry" />
        </mxCell>
        <mxCell id="TVzXZp35jAcB1p5jSO6k-11" value="&lt;font style=&quot;font-size: 20px;&quot;&gt;End&lt;/font&gt;" style="strokeWidth=2;html=1;shape=mxgraph.flowchart.start_1;whiteSpace=wrap;" parent="1" vertex="1">
          <mxGeometry x="670" y="530" width="100" height="60" as="geometry" />
        </mxCell>
        <mxCell id="koFfnHoUcW7MzLcUIsGN-4" value="" style="edgeStyle=orthogonalEdgeStyle;rounded=0;orthogonalLoop=1;jettySize=auto;html=1;" edge="1" parent="1" source="koFfnHoUcW7MzLcUIsGN-2" target="TVzXZp35jAcB1p5jSO6k-10">
          <mxGeometry relative="1" as="geometry" />
        </mxCell>
        <mxCell id="koFfnHoUcW7MzLcUIsGN-2" value="&lt;span style=&quot;font-size: 14px;&quot;&gt;Upload report to the folder&lt;/span&gt;" style="rounded=1;whiteSpace=wrap;html=1;" vertex="1" parent="1">
          <mxGeometry x="660" y="330" width="120" height="60" as="geometry" />
        </mxCell>
      </root>
    </mxGraphModel>
  </diagram>
</mxfile>
